ply
format ascii 1.0
comment VCGLIB generated
element vertex 99
property float x
property float y
property float z
property float nx
property float ny
property float nz
property uchar red
property uchar green
property uchar blue
property uchar alpha
property float texture_u
property float texture_v
element face 160
property list uchar int vertex_indices
end_header
5 -1.639177e-07 -3.75 0 1 -4.371139e-08 70 140 104 255 1 0.1249999
4 -2.185569e-07 -5 0 1 -4.37114e-08 72 145 108 255 0.9 0
4 -1.639177e-07 -3.75 0 1 -4.371139e-08 71 143 106 255 0.9 0.1249999
5 5.463924e-08 1.25 0 1 -4.371139e-08 64 129 96 255 1 0.6250001
4 0 0 0 1 -4.37114e-08 68 136 101 255 0.9 0.5
4 5.463924e-08 1.25 0 1 -4.371139e-08 66 133 99 255 0.9 0.6250001
0 5.463924e-08 1.25 0 1 -4.371139e-08 75 150 112 255 0.5 0.6250001
-1 0 0 0 1 -4.371139e-08 78 156 116 255 0.4 0.5
-1 5.463924e-08 1.25 0 1 -4.371139e-08 77 154 115 255 0.4 0.6250001
0 -1.639177e-07 -3.75 0 1 -4.371139e-08 78 156 116 255 0.5 0.1249999
-1 -2.185569e-07 -5 0 1 -4.37114e-08 80 161 120 255 0.4 0
-1 -1.639177e-07 -3.75 0 1 -4.371139e-08 80 160 119 255 0.4 0.1249999
0 -5.463924e-08 -1.25 0 1 -4.371139e-08 77 154 114 255 0.5 0.375
-1 -1.092785e-07 -2.5 0 1 -4.371139e-08 79 158 118 255 0.4 0.2499999
-1 -5.463924e-08 -1.25 0 1 -4.37114e-08 78 157 117 255 0.4 0.375
5 -5.463924e-08 -1.25 0 1 -4.371139e-08 67 135 100 255 1 0.375
4 -1.092785e-07 -2.5 0 1 -4.371139e-08 70 141 105 255 0.9 0.2499999
4 -5.463924e-08 -1.25 0 1 -4.371139e-08 69 139 103 255 0.9 0.375
0 1.639177e-07 3.75 0 1 -4.371139e-08 72 145 108 255 0.5 0.8750001
-1 1.092785e-07 2.5 0 1 -4.371138e-08 76 152 114 255 0.4 0.7500001
-1 1.639177e-07 3.75 0 1 -4.371139e-08 75 150 112 255 0.4 0.8750001
5 1.639177e-07 3.75 0 1 -4.371139e-08 60 121 90 255 1 0.8750001
4 1.092785e-07 2.5 0 1 -4.371138e-08 65 130 96 255 0.9 0.7500001
4 1.639177e-07 3.75 0 1 -4.371139e-08 63 126 93 255 0.9 0.8750001
5 2.185569e-07 5 0 1 -4.37114e-08 58 116 86 255 1 1
4 2.185569e-07 5 0 1 -4.37114e-08 60 121 90 255 0.9 1
0 2.185569e-07 5 0 1 -4.37114e-08 71 143 106 255 0.5 1
-1 2.185569e-07 5 0 1 -4.37114e-08 74 148 110 255 0.4 1
0 1.092785e-07 2.5 0 1 -4.371139e-08 74 148 110 255 0.5 0.7500001
5 1.092785e-07 2.5 0 1 -4.371139e-08 62 125 93 255 1 0.7500001
5 0 0 0 1 -4.37114e-08 66 132 98 255 1 0.5
0 0 0 0 1 -4.371139e-08 76 152 113 255 0.5 0.5
0 -1.092785e-07 -2.5 0 1 -4.371139e-08 77 155 115 255 0.5 0.2499999
5 -1.092785e-07 -2.5 0 1 -4.371139e-08 68 137 102 255 1 0.2499999
-4 -1.092785e-07 -2.5 0 1 -4.371139e-08 84 169 126 255 0.1 0.2499999
-5 -1.639177e-07 -3.75 0 1 -4.371139e-08 85 170 127 255 0 0.1249999
-5 -1.092785e-07 -2.5 0 1 -4.371139e-08 85 170 127 255 0 0.2499999
-3 -1.092785e-07 -2.5 0 1 -4.371139e-08 82 165 123 255 0.2 0.2499999
-4 -1.639177e-07 -3.75 0 1 -4.371139e-08 84 169 126 255 0.1 0.1249999
-2 -1.092785e-07 -2.5 0 1 -4.371139e-08 81 162 121 255 0.3 0.2499999
-3 -1.639177e-07 -3.75 0 1 -4.371139e-08 83 166 124 255 0.2 0.1249999
-2 -1.639177e-07 -3.75 0 1 -4.371139e-08 81 163 121 255 0.3 0.1249999
-4 0 0 0 1 -4.371139e-08 84 168 125 255 0.1 0.5
-5 -5.463924e-08 -1.25 0 1 -4.371139e-08 85 170 127 255 0 0.375
-5 0 0 0 1 -4.371139e-08 85 170 127 255 0 0.5
-3 0 0 0 1 -4.371139e-08 82 164 122 255 0.2 0.5
-4 -5.463924e-08 -1.25 0 1 -4.371139e-08 84 168 126 255 0.1 0.375
-2 0 0 0 1 -4.371139e-08 80 160 119 255 0.3 0.5
-3 -5.463924e-08 -1.25 0 1 -4.371139e-08 82 165 123 255 0.2 0.375
-2 -5.463924e-08 -1.25 0 1 -4.371139e-08 80 161 120 255 0.3 0.375
-4 1.092785e-07 2.5 0 1 -4.371139e-08 83 166 124 255 0.1 0.7500001
-5 5.463924e-08 1.25 0 1 -4.371139e-08 85 170 127 255 0 0.6250001
-5 1.092785e-07 2.5 0 1 -4.371139e-08 85 170 127 255 0 0.7500001
-3 1.092785e-07 2.5 0 1 -4.371139e-08 81 162 120 255 0.2 0.7500001
-4 5.463924e-08 1.25 0 1 -4.371139e-08 83 167 125 255 0.1 0.6250001
-2 1.092785e-07 2.5 0 1 -4.371139e-08 78 157 117 255 0.3 0.7500001
-3 5.463924e-08 1.25 0 1 -4.371139e-08 81 163 121 255 0.2 0.6250001
-2 5.463924e-08 1.25 0 1 -4.371139e-08 79 159 118 255 0.3 0.6250001
-4 2.185569e-07 5 0 1 -4.37114e-08 82 164 122 255 0.1 1
-5 1.639177e-07 3.75 0 1 -4.371139e-08 85 170 127 255 0 0.8750001
-5 2.185569e-07 5 0 1 -4.371139e-08 84 169 126 255 0 1
-3 2.185569e-07 5 0 1 -4.37114e-08 79 159 118 255 0.2 1
-4 1.639177e-07 3.75 0 1 -4.371139e-08 82 165 123 255 0.1 0.8750001
-2 2.185569e-07 5 0 1 -4.37114e-08 76 153 114 255 0.3 1
-3 1.639177e-07 3.75 0 1 -4.371139e-08 80 160 119 255 0.2 0.8750001
-2 1.639177e-07 3.75 0 1 -4.371139e-08 77 155 116 255 0.3 0.8750001
-5 -2.185569e-07 -5 0 1 -4.37114e-08 85 170 127 255 0 0
-4 -2.185569e-07 -5 0 1 -4.37114e-08 85 170 127 255 0.1 0
-3 -2.185569e-07 -5 0 1 -4.37114e-08 83 167 124 255 0.2 0
-2 -2.185569e-07 -5 0 1 -4.37114e-08 82 164 122 255 0.3 0
1 -1.092785e-07 -2.5 0 1 -4.371139e-08 75 151 113 255 0.6 0.2499999
2 -1.092785e-07 -2.5 0 1 -4.371139e-08 74 148 110 255 0.7 0.2499999
1 -1.639177e-07 -3.75 0 1 -4.371139e-08 76 153 114 255 0.6 0.1249999
3 -1.092785e-07 -2.5 0 1 -4.371139e-08 72 144 108 255 0.8 0.2499999
2 -1.639177e-07 -3.75 0 1 -4.371139e-08 75 150 111 255 0.7 0.1249999
3 -1.639177e-07 -3.75 0 1 -4.371139e-08 73 146 109 255 0.8 0.1249999
1 0 0 0 1 -4.371139e-08 74 148 110 255 0.6 0.5
2 0 0 0 1 -4.371139e-08 72 144 107 255 0.7 0.5
1 -5.463924e-08 -1.25 0 1 -4.371139e-08 75 150 112 255 0.6 0.375
3 0 0 0 1 -4.37114e-08 70 140 104 255 0.8 0.5
2 -5.463924e-08 -1.25 0 1 -4.371139e-08 73 146 109 255 0.7 0.375
3 -5.463924e-08 -1.25 0 1 -4.371139e-08 71 142 106 255 0.8 0.375
1 1.092785e-07 2.5 0 1 -4.371139e-08 71 143 107 255 0.6 0.7500001
2 1.092785e-07 2.5 0 1 -4.371139e-08 69 139 103 255 0.7 0.7500001
1 5.463924e-08 1.25 0 1 -4.37114e-08 73 146 109 255 0.6 0.6250001
3 1.092785e-07 2.5 0 1 -4.371138e-08 67 134 100 255 0.8 0.7500001
2 5.463924e-08 1.25 0 1 -4.371139e-08 71 142 105 255 0.7 0.6250001
3 5.463924e-08 1.25 0 1 -4.371139e-08 68 137 102 255 0.8 0.6250001
1 2.185569e-07 5 0 1 -4.37114e-08 68 137 102 255 0.6 1
2 2.185569e-07 5 0 1 -4.37114e-08 66 132 98 255 0.7 1
1 1.639177e-07 3.75 0 1 -4.371139e-08 70 141 105 255 0.6 0.8750001
3 2.185569e-07 5 0 1 -4.37114e-08 63 127 94 255 0.8 1
2 1.639177e-07 3.75 0 1 -4.371139e-08 68 136 101 255 0.7 0.8750001
3 1.639177e-07 3.75 0 1 -4.371139e-08 65 131 97 255 0.8 0.8750001
0 -2.185569e-07 -5 0 1 -4.37114e-08 78 157 117 255 0.5 0
1 -2.185569e-07 -5 0 1 -4.37114e-08 77 154 115 255 0.6 0
2 -2.185569e-07 -5 0 1 -4.37114e-08 75 151 113 255 0.7 0
3 -2.185569e-07 -5 0 1 -4.37114e-08 74 148 110 255 0.8 0
5 -2.185569e-07 -5 0 1 -4.371139e-08 71 142 105 255 1 0
3 0 1 2 
3 3 4 5 
3 6 7 8 
3 9 10 11 
3 12 13 14 
3 15 16 17 
3 18 19 20 
3 21 22 23 
3 24 23 25 
3 26 20 27 
3 28 8 19 
3 29 5 22 
3 30 17 4 
3 31 14 7 
3 32 11 13 
3 33 2 16 
3 34 35 36 
3 37 38 34 
3 39 40 37 
3 13 41 39 
3 42 43 44 
3 45 46 42 
3 47 48 45 
3 7 49 47 
3 50 51 52 
3 53 54 50 
3 55 56 53 
3 19 57 55 
3 58 59 60 
3 61 62 58 
3 63 64 61 
3 27 65 63 
3 62 52 59 
3 64 50 62 
3 65 53 64 
3 20 55 65 
3 46 36 43 
3 48 34 46 
3 49 37 48 
3 14 39 49 
3 38 66 35 
3 40 67 38 
3 41 68 40 
3 11 69 41 
3 54 44 51 
3 56 42 54 
3 57 45 56 
3 8 47 57 
3 70 9 32 
3 71 72 70 
3 73 74 71 
3 16 75 73 
3 76 12 31 
3 77 78 76 
3 79 80 77 
3 4 81 79 
3 82 6 28 
3 83 84 82 
3 85 86 83 
3 22 87 85 
3 88 18 26 
3 89 90 88 
3 91 92 89 
3 25 93 91 
3 90 28 18 
3 92 82 90 
3 93 83 92 
3 23 85 93 
3 78 32 12 
3 80 70 78 
3 81 71 80 
3 17 73 81 
3 84 31 6 
3 86 76 84 
3 87 77 86 
3 5 79 87 
3 72 94 9 
3 74 95 72 
3 75 96 74 
3 2 97 75 
3 0 98 1 
3 3 30 4 
3 6 31 7 
3 9 94 10 
3 12 32 13 
3 15 33 16 
3 18 28 19 
3 21 29 22 
3 24 21 23 
3 26 18 20 
3 28 6 8 
3 29 3 5 
3 30 15 17 
3 31 12 14 
3 32 9 11 
3 33 0 2 
3 34 38 35 
3 37 40 38 
3 39 41 40 
3 13 11 41 
3 42 46 43 
3 45 48 46 
3 47 49 48 
3 7 14 49 
3 50 54 51 
3 53 56 54 
3 55 57 56 
3 19 8 57 
3 58 62 59 
3 61 64 62 
3 63 65 64 
3 27 20 65 
3 62 50 52 
3 64 53 50 
3 65 55 53 
3 20 19 55 
3 46 34 36 
3 48 37 34 
3 49 39 37 
3 14 13 39 
3 38 67 66 
3 40 68 67 
3 41 69 68 
3 11 10 69 
3 54 42 44 
3 56 45 42 
3 57 47 45 
3 8 7 47 
3 70 72 9 
3 71 74 72 
3 73 75 74 
3 16 2 75 
3 76 78 12 
3 77 80 78 
3 79 81 80 
3 4 17 81 
3 82 84 6 
3 83 86 84 
3 85 87 86 
3 22 5 87 
3 88 90 18 
3 89 92 90 
3 91 93 92 
3 25 23 93 
3 90 82 28 
3 92 83 82 
3 93 85 83 
3 23 22 85 
3 78 70 32 
3 80 71 70 
3 81 73 71 
3 17 16 73 
3 84 76 31 
3 86 77 76 
3 87 79 77 
3 5 4 79 
3 72 95 94 
3 74 96 95 
3 75 97 96 
3 2 1 97 
